<svg width="43" height="22" viewBox="0 0 43 22" fill="none" xmlns="http://www.w3.org/2000/svg">
<path d="M18.768 0.775999C19.0667 0.775999 19.4293 0.978666 19.856 1.384C20.304 1.768 20.528 2.09867 20.528 2.376C20.528 3.67733 20.4853 5.45867 20.4 7.72C20.3787 8.27467 20.3573 8.94667 20.336 9.736C20.3147 10.504 20.304 11.4 20.304 12.424C20.304 15.6667 20.496 18.056 20.88 19.592C20.8587 20.104 20.656 20.4773 20.272 20.712C19.888 20.9253 19.504 21.032 19.12 21.032C18.2667 21.032 17.7013 20.7333 17.424 20.136C17.168 19.5387 17.04 18.6853 17.04 17.576C17.04 13.4587 17.0827 9.672 17.168 6.216C14.7147 8.94667 12.8053 11.24 11.44 13.096C11.44 13.096 11.248 13.224 10.864 13.48C10.5013 13.8 10.2027 13.96 9.968 13.96C9.41333 13.96 8.95467 13.8213 8.592 13.544C8.22933 13.2667 7.87733 12.8613 7.536 12.328L6 10.152C4.93333 8.65867 4.15467 7.528 3.664 6.76C3.664 8.72267 3.76 11.3893 3.952 14.76C4.10133 16.7013 4.176 18.1627 4.176 19.144C4.176 19.656 4.048 20.0933 3.792 20.456C3.536 20.7973 3.13067 20.968 2.576 20.968C2.02133 20.968 1.56267 20.8613 1.2 20.648C0.858667 20.4347 0.677334 20.1147 0.656 19.688C0.677334 19.3253 0.688 18.728 0.688 17.896C0.688 16.232 0.634667 14.2053 0.528 11.816L0.464 10.088L0.4 7.848C0.378667 7.18667 0.357333 6.41867 0.336 5.544C0.314667 4.648 0.304 3.67733 0.304 2.632C0.304 1.352 0.997334 0.712 2.384 0.712C2.81067 0.712 3.23733 0.818666 3.664 1.032C4.112 1.24533 4.44267 1.55467 4.656 1.96C4.82667 2.70667 5.456 3.944 6.544 5.672C7.632 7.4 8.69867 9.02133 9.744 10.536C10.6827 9.34133 11.4507 8.44533 12.048 7.848C13.072 6.80267 13.9147 5.832 14.576 4.936C15.2587 4.04 15.9947 2.96267 16.784 1.704C16.976 1.448 17.2533 1.23467 17.616 1.064C17.9787 0.871999 18.3627 0.775999 18.768 0.775999Z" fill="#008080"/>
<path d="M25.7483 19.496C25.7483 18.792 25.7909 18.0133 25.8763 17.16C25.9616 16.1787 26.0043 14.9413 26.0043 13.448C26.0043 10.7173 25.8869 8.08267 25.6523 5.544C25.5243 3.96533 25.4603 2.84533 25.4603 2.184C25.4603 1.736 25.6843 1.36267 26.1323 1.064C26.5803 0.743999 27.0389 0.584 27.5083 0.584C27.8069 0.584 28.1696 0.605333 28.5963 0.647999C29.0229 0.690666 29.3323 0.712 29.5243 0.712C34.3243 0.712 37.8549 2.00267 40.1163 4.584C41.5456 6.248 42.2603 8.456 42.2603 11.208C42.2603 12.36 42.0469 13.5227 41.6203 14.696C41.2149 15.848 40.6283 16.7867 39.8603 17.512C39.0283 18.3227 38.2389 18.9733 37.4923 19.464C36.7669 19.9333 35.7749 20.328 34.5163 20.648C33.2789 20.968 31.6896 21.128 29.7483 21.128C28.5109 21.128 27.5296 20.9893 26.8043 20.712C26.1003 20.4347 25.7483 20.0293 25.7483 19.496ZM30.9643 18.216C32.3936 18.216 33.7056 17.96 34.9003 17.448C36.0949 16.9147 37.0549 16.1253 37.7803 15.08C38.5056 14.0133 38.8683 12.712 38.8683 11.176C38.8683 9.66133 38.6549 8.40267 38.2283 7.4C37.8016 6.376 37.0656 5.544 36.0203 4.904C35.2309 4.41333 34.2603 4.06133 33.1083 3.848C31.9563 3.61333 30.5696 3.496 28.9483 3.496C28.9483 3.70933 28.9696 4.2 29.0123 4.968C29.0549 5.69333 29.0763 6.30133 29.0763 6.792L29.1083 7.496C29.2363 9.71467 29.3003 11.4747 29.3003 12.776C29.3003 14.824 29.1829 16.5947 28.9483 18.088C29.4603 18.1733 30.1323 18.216 30.9643 18.216Z" fill="#FF6F61"/>
</svg>
