<svg width="28" height="28" viewBox="0 0 28 28" fill="none" xmlns="http://www.w3.org/2000/svg">
<path d="M26.25 9.62496V16.625C26.25 16.857 26.1578 17.0796 25.9937 17.2437C25.8296 17.4078 25.6071 17.5 25.375 17.5H18.375C18.1429 17.5 17.9204 17.4078 17.7563 17.2437C17.5922 17.0796 17.5 16.857 17.5 16.625C17.5 16.3929 17.5922 16.1703 17.7563 16.0062C17.9204 15.8421 18.1429 15.75 18.375 15.75H23.2531L20.8075 13.3207C19.4616 11.9742 17.7466 11.0571 15.8794 10.6853C14.0122 10.3136 12.0768 10.5039 10.3178 11.2323C8.55876 11.9606 7.05527 13.1942 5.99745 14.7772C4.93964 16.3601 4.37502 18.2211 4.375 20.125C4.375 20.357 4.28281 20.5796 4.11872 20.7437C3.95462 20.9078 3.73206 21 3.5 21C3.26794 21 3.04538 20.9078 2.88128 20.7437C2.71719 20.5796 2.625 20.357 2.625 20.125C2.62496 17.8752 3.29207 15.6759 4.54197 13.8052C5.79187 11.9346 7.56842 10.4766 9.64695 9.61564C11.7255 8.75468 14.0126 8.52942 16.2192 8.96834C18.4258 9.40726 20.4526 10.4907 22.0434 12.0815L24.5 14.5217V9.62496C24.5 9.39289 24.5922 9.17033 24.7563 9.00624C24.9204 8.84214 25.1429 8.74996 25.375 8.74996C25.6071 8.74996 25.8296 8.84214 25.9937 9.00624C26.1578 9.17033 26.25 9.39289 26.25 9.62496Z" fill="#FAFAFA"/>
</svg>
