<svg width="20" height="20" viewBox="0 0 20 20" fill="none" xmlns="http://www.w3.org/2000/svg">
<path d="M18.125 14.3751C18.125 14.5409 18.0592 14.6999 17.9419 14.8171C17.8247 14.9343 17.6658 15.0001 17.5 15.0001C17.3342 15.0001 17.1753 14.9343 17.0581 14.8171C16.9408 14.6999 16.875 14.5409 16.875 14.3751C16.8748 13.0155 16.4715 11.6865 15.7161 10.556C14.9606 9.42561 13.887 8.54455 12.6308 8.02427C11.3747 7.50398 9.99249 7.36784 8.65899 7.63304C7.32548 7.89825 6.10055 8.55289 5.13906 9.51421L3.39063 11.2501H6.875C7.04076 11.2501 7.19973 11.316 7.31694 11.4332C7.43415 11.5504 7.5 11.7094 7.5 11.8751C7.5 12.0409 7.43415 12.1999 7.31694 12.3171C7.19973 12.4343 7.04076 12.5001 6.875 12.5001H1.875C1.70924 12.5001 1.55027 12.4343 1.43306 12.3171C1.31585 12.1999 1.25 12.0409 1.25 11.8751V6.87514C1.25 6.70938 1.31585 6.55041 1.43306 6.4332C1.55027 6.31599 1.70924 6.25014 1.875 6.25014C2.04076 6.25014 2.19973 6.31599 2.31694 6.4332C2.43415 6.55041 2.5 6.70938 2.5 6.87514V10.3728L4.25625 8.62827C5.39273 7.49238 6.84048 6.71897 8.41648 6.40581C9.99247 6.09265 11.6259 6.25381 13.1103 6.86891C14.5948 7.48402 15.8635 8.52544 16.756 9.86152C17.6486 11.1976 18.125 12.7683 18.125 14.3751Z" fill="#B2B2B2"/>
</svg>
