<svg width="28" height="28" viewBox="0 0 28 28" fill="none" xmlns="http://www.w3.org/2000/svg">
<path d="M25.375 20.125C25.375 20.357 25.2828 20.5796 25.1187 20.7437C24.9546 20.9078 24.7321 21 24.5 21C24.2679 21 24.0454 20.9078 23.8813 20.7437C23.7172 20.5796 23.625 20.357 23.625 20.125C23.6248 18.2215 23.0601 16.3608 22.0025 14.7782C20.9449 13.1956 19.4418 11.9621 17.6832 11.2337C15.9246 10.5053 13.9895 10.3147 12.1226 10.686C10.2557 11.0573 8.54076 11.9738 7.19469 13.3196L4.74688 15.75H9.625C9.85706 15.75 10.0796 15.8421 10.2437 16.0062C10.4078 16.1703 10.5 16.3929 10.5 16.625C10.5 16.857 10.4078 17.0796 10.2437 17.2437C10.0796 17.4078 9.85706 17.5 9.625 17.5H2.625C2.39294 17.5 2.17038 17.4078 2.00628 17.2437C1.84219 17.0796 1.75 16.857 1.75 16.625V9.62496C1.75 9.39289 1.84219 9.17033 2.00628 9.00624C2.17038 8.84214 2.39294 8.74996 2.625 8.74996C2.85706 8.74996 3.07962 8.84214 3.24372 9.00624C3.40781 9.17033 3.5 9.39289 3.5 9.62496V14.5217L5.95875 12.0793C7.54982 10.4891 9.57668 9.40631 11.7831 8.96789C13.9895 8.52947 16.2763 8.75509 18.3545 9.61623C20.4327 10.4774 22.2088 11.9354 23.4585 13.8059C24.7081 15.6764 25.375 17.8754 25.375 20.125Z" fill="#FAFAFA"/>
</svg>
