<svg width="20" height="20" viewBox="0 0 20 20" fill="none" xmlns="http://www.w3.org/2000/svg">
<path d="M10 1.875C8.39303 1.875 6.82214 2.35152 5.486 3.24431C4.14985 4.1371 3.10844 5.40605 2.49348 6.8907C1.87852 8.37535 1.71762 10.009 2.03112 11.5851C2.34463 13.1612 3.11846 14.6089 4.25476 15.7452C5.39106 16.8815 6.8388 17.6554 8.41489 17.9689C9.99099 18.2824 11.6247 18.1215 13.1093 17.5065C14.594 16.8916 15.8629 15.8502 16.7557 14.514C17.6485 13.1779 18.125 11.607 18.125 10C18.1227 7.84581 17.266 5.78051 15.7427 4.25727C14.2195 2.73403 12.1542 1.87727 10 1.875ZM10.625 3.15391C11.0481 3.19252 11.4666 3.27099 11.875 3.38828V16.6148C11.4666 16.7321 11.0481 16.8106 10.625 16.8492V3.15391ZM13.125 3.87734C13.5705 4.10541 13.9896 4.38153 14.375 4.70078V15.2992C13.9896 15.6185 13.5705 15.8946 13.125 16.1227V3.87734ZM3.125 10C3.12707 8.28547 3.76889 6.63343 4.92487 5.3672C6.08084 4.10097 7.66775 3.31172 9.375 3.15391V16.8461C7.66775 16.6883 6.08084 15.899 4.92487 14.6328C3.76889 13.3666 3.12707 11.7145 3.125 10ZM15.625 13.9484V6.05156C16.4385 7.20752 16.875 8.58651 16.875 10C16.875 11.4135 16.4385 12.7925 15.625 13.9484Z" fill="#B2B2B2"/>
</svg>
