<svg width="28" height="28" viewBox="0 0 28 28" fill="none" xmlns="http://www.w3.org/2000/svg">
<path d="M10.2063 7.65636L3.06304 14.0001L10.2019 20.3439C10.2881 20.4201 10.3584 20.5126 10.4089 20.6161C10.4593 20.7195 10.4889 20.8319 10.4959 20.9467C10.5029 21.0616 10.4872 21.1767 10.4497 21.2855C10.4122 21.3943 10.3537 21.4947 10.2774 21.5809C10.2011 21.6671 10.1086 21.7374 10.0052 21.7878C9.90176 21.8382 9.7894 21.8678 9.67453 21.8748C9.55966 21.8818 9.44453 21.8661 9.33573 21.8287C9.22692 21.7912 9.12656 21.7326 9.04038 21.6564L1.16538 14.6564C1.07228 14.5742 0.997709 14.4733 0.946632 14.3601C0.895556 14.247 0.869141 14.1242 0.869141 14.0001C0.869141 13.876 0.895556 13.7532 0.946632 13.6401C0.997709 13.527 1.07228 13.426 1.16538 13.3439L9.04038 6.34386C9.12656 6.2673 9.22698 6.20847 9.33589 6.17072C9.44481 6.13297 9.5601 6.11704 9.67517 6.12385C9.79024 6.13065 9.90285 6.16005 10.0066 6.21038C10.1103 6.2607 10.203 6.33096 10.2796 6.41714C10.3562 6.50332 10.415 6.60373 10.4527 6.71265C10.4905 6.82157 10.5064 6.93685 10.4996 7.05192C10.4928 7.167 10.4634 7.2796 10.4131 7.38331C10.3628 7.48702 10.2925 7.5798 10.2063 7.65636ZM26.8313 13.3439L18.9563 6.34386C18.7823 6.18982 18.5542 6.11124 18.3222 6.12539C18.0902 6.13955 17.8733 6.24528 17.7193 6.41932C17.5653 6.59337 17.4867 6.82148 17.5008 7.05347C17.515 7.28546 17.6207 7.50232 17.7948 7.65636L24.938 14.0001L17.7991 20.3439C17.713 20.4201 17.6426 20.5126 17.5922 20.6161C17.5418 20.7195 17.5122 20.8319 17.5052 20.9467C17.4982 21.0616 17.5139 21.1767 17.5514 21.2855C17.5888 21.3943 17.6474 21.4947 17.7237 21.5809C17.7999 21.6671 17.8924 21.7374 17.9959 21.7878C18.0993 21.8382 18.2117 21.8678 18.3265 21.8748C18.4414 21.8818 18.5565 21.8661 18.6653 21.8287C18.7742 21.7912 18.8745 21.7326 18.9607 21.6564L26.8357 14.6564C26.9288 14.5742 27.0034 14.4733 27.0544 14.3601C27.1055 14.247 27.1319 14.1242 27.1319 14.0001C27.1319 13.876 27.1055 13.7532 27.0544 13.6401C27.0034 13.527 26.9288 13.426 26.8357 13.3439H26.8313Z" fill="#FAFAFA"/>
</svg>
