<svg width="20" height="20" viewBox="0 0 20 20" fill="none" xmlns="http://www.w3.org/2000/svg">
<path d="M11.2503 8.12486V4.99986C11.2503 4.8341 11.3162 4.67513 11.4334 4.55792C11.5506 4.44071 11.7096 4.37486 11.8753 4.37486C12.0411 4.37486 12.2001 4.44071 12.3173 4.55792C12.4345 4.67513 12.5003 4.8341 12.5003 4.99986V6.61627L15.8082 3.30767C15.9254 3.1904 16.0845 3.12451 16.2503 3.12451C16.4162 3.12451 16.5753 3.1904 16.6925 3.30767C16.8098 3.42495 16.8757 3.58401 16.8757 3.74986C16.8757 3.91571 16.8098 4.07477 16.6925 4.19205L13.3839 7.49986H15.0003C15.1661 7.49986 15.3251 7.56571 15.4423 7.68292C15.5595 7.80013 15.6253 7.9591 15.6253 8.12486C15.6253 8.29062 15.5595 8.44959 15.4423 8.5668C15.3251 8.68401 15.1661 8.74986 15.0003 8.74986H11.8753C11.7096 8.74986 11.5506 8.68401 11.4334 8.5668C11.3162 8.44959 11.2503 8.29062 11.2503 8.12486ZM8.12535 11.2499H5.00035C4.83459 11.2499 4.67562 11.3157 4.55841 11.4329C4.4412 11.5501 4.37535 11.7091 4.37535 11.8749C4.37535 12.0406 4.4412 12.1996 4.55841 12.3168C4.67562 12.434 4.83459 12.4999 5.00035 12.4999H6.61675L3.30816 15.8077C3.19088 15.9249 3.125 16.084 3.125 16.2499C3.125 16.4157 3.19088 16.5748 3.30816 16.692C3.42544 16.8093 3.5845 16.8752 3.75035 16.8752C3.9162 16.8752 4.07526 16.8093 4.19253 16.692L7.50035 13.3835V14.9999C7.50035 15.1656 7.5662 15.3246 7.68341 15.4418C7.80062 15.559 7.95959 15.6249 8.12535 15.6249C8.29111 15.6249 8.45008 15.559 8.56729 15.4418C8.6845 15.3246 8.75035 15.1656 8.75035 14.9999V11.8749C8.75035 11.7091 8.6845 11.5501 8.56729 11.4329C8.45008 11.3157 8.29111 11.2499 8.12535 11.2499ZM13.3839 12.4999H15.0003C15.1661 12.4999 15.3251 12.434 15.4423 12.3168C15.5595 12.1996 15.6253 12.0406 15.6253 11.8749C15.6253 11.7091 15.5595 11.5501 15.4423 11.4329C15.3251 11.3157 15.1661 11.2499 15.0003 11.2499H11.8753C11.7096 11.2499 11.5506 11.3157 11.4334 11.4329C11.3162 11.5501 11.2503 11.7091 11.2503 11.8749V14.9999C11.2503 15.1656 11.3162 15.3246 11.4334 15.4418C11.5506 15.559 11.7096 15.6249 11.8753 15.6249C12.0411 15.6249 12.2001 15.559 12.3173 15.4418C12.4345 15.3246 12.5003 15.1656 12.5003 14.9999V13.3835L15.8082 16.692C15.8662 16.7501 15.9352 16.7962 16.011 16.8276C16.0869 16.859 16.1682 16.8752 16.2503 16.8752C16.3325 16.8752 16.4138 16.859 16.4897 16.8276C16.5655 16.7962 16.6345 16.7501 16.6925 16.692C16.7506 16.634 16.7967 16.565 16.8281 16.4892C16.8595 16.4133 16.8757 16.332 16.8757 16.2499C16.8757 16.1677 16.8595 16.0864 16.8281 16.0105C16.7967 15.9347 16.7506 15.8657 16.6925 15.8077L13.3839 12.4999ZM8.12535 4.37486C7.95959 4.37486 7.80062 4.44071 7.68341 4.55792C7.5662 4.67513 7.50035 4.8341 7.50035 4.99986V6.61627L4.19253 3.30767C4.07526 3.1904 3.9162 3.12451 3.75035 3.12451C3.5845 3.12451 3.42544 3.1904 3.30816 3.30767C3.19088 3.42495 3.125 3.58401 3.125 3.74986C3.125 3.91571 3.19088 4.07477 3.30816 4.19205L6.61675 7.49986H5.00035C4.83459 7.49986 4.67562 7.56571 4.55841 7.68292C4.4412 7.80013 4.37535 7.9591 4.37535 8.12486C4.37535 8.29062 4.4412 8.44959 4.55841 8.5668C4.67562 8.68401 4.83459 8.74986 5.00035 8.74986H8.12535C8.29111 8.74986 8.45008 8.68401 8.56729 8.5668C8.6845 8.44959 8.75035 8.29062 8.75035 8.12486V4.99986C8.75035 4.8341 8.6845 4.67513 8.56729 4.55792C8.45008 4.44071 8.29111 4.37486 8.12535 4.37486Z" fill="#FE1645"/>
</svg>
