<svg width="20" height="20" viewBox="0 0 20 20" fill="none" xmlns="http://www.w3.org/2000/svg">
<path d="M9.99942 6.25015C9.25774 6.25015 8.53271 6.47008 7.91603 6.88214C7.29934 7.29419 6.8187 7.87986 6.53487 8.56509C6.25104 9.25031 6.17678 10.0043 6.32147 10.7317C6.46617 11.4592 6.82332 12.1274 7.34777 12.6518C7.87221 13.1762 8.5404 13.5334 9.26783 13.6781C9.99526 13.8228 10.7493 13.7485 11.4345 13.4647C12.1197 13.1809 12.7054 12.7002 13.1174 12.0835C13.5295 11.4669 13.7494 10.7418 13.7494 10.0001C13.7484 9.0059 13.353 8.05268 12.6499 7.34964C11.9469 6.6466 10.9937 6.25118 9.99942 6.25015ZM9.99942 12.5001C9.50496 12.5001 9.02161 12.3535 8.61049 12.0788C8.19937 11.8041 7.87894 11.4137 7.68972 10.9569C7.5005 10.5 7.45099 9.99738 7.54745 9.51242C7.64392 9.02747 7.88202 8.58201 8.23165 8.23238C8.58128 7.88275 9.02674 7.64465 9.51169 7.54819C9.99664 7.45172 10.4993 7.50123 10.9561 7.69045C11.4129 7.87967 11.8034 8.2001 12.0781 8.61122C12.3528 9.02235 12.4994 9.5057 12.4994 10.0001C12.4994 10.6632 12.236 11.2991 11.7672 11.7679C11.2983 12.2368 10.6625 12.5001 9.99942 12.5001ZM18.5885 8.37593C18.5711 8.28792 18.5349 8.20469 18.4825 8.13189C18.43 8.05909 18.3625 7.99844 18.2846 7.95405L15.9541 6.62593L15.9447 3.99937C15.9444 3.90891 15.9245 3.81959 15.8864 3.73758C15.8482 3.65557 15.7927 3.58282 15.7236 3.52437C14.8783 2.80929 13.9048 2.26129 12.8549 1.90952C12.7722 1.88154 12.6846 1.87118 12.5977 1.87912C12.5107 1.88706 12.4264 1.91312 12.3502 1.95562L9.99942 3.26968L7.64629 1.95327C7.57 1.91053 7.4856 1.88428 7.39853 1.87621C7.31146 1.86813 7.22367 1.87842 7.14082 1.9064C6.09172 2.26074 5.11933 2.81082 4.2752 3.52749C4.20627 3.58586 4.15081 3.65848 4.11264 3.74035C4.07447 3.82222 4.0545 3.91138 4.0541 4.00171L4.04239 6.63062L1.71192 7.95874C1.63395 8.00313 1.56645 8.06378 1.51401 8.13658C1.46157 8.20937 1.42542 8.29261 1.40801 8.38062C1.19473 9.4524 1.19473 10.5557 1.40801 11.6275C1.42542 11.7155 1.46157 11.7987 1.51401 11.8715C1.56645 11.9443 1.63395 12.005 1.71192 12.0494L4.04239 13.3775L4.05176 16.0041C4.05204 16.0945 4.07196 16.1838 4.11013 16.2658C4.1483 16.3479 4.20382 16.4206 4.27285 16.4791C5.11822 17.1941 6.09173 17.7421 7.1416 18.0939C7.22428 18.1219 7.3119 18.1322 7.39883 18.1243C7.48575 18.1164 7.57005 18.0903 7.64629 18.0478L9.99942 16.7306L12.3525 18.047C12.4457 18.0989 12.5506 18.1258 12.6572 18.1251C12.7255 18.1251 12.7933 18.114 12.858 18.0923C13.907 17.7385 14.8794 17.1889 15.7236 16.4728C15.7926 16.4144 15.848 16.3418 15.8862 16.2599C15.9244 16.1781 15.9443 16.0889 15.9447 15.9986L15.9564 13.3697L18.2869 12.0416C18.3649 11.9972 18.4324 11.9365 18.4848 11.8637C18.5373 11.7909 18.5734 11.7077 18.5908 11.6197C18.8029 10.5488 18.8021 9.44655 18.5885 8.37593ZM17.4166 11.1033L15.1846 12.3728C15.0868 12.4284 15.0058 12.5094 14.9502 12.6072C14.9049 12.6853 14.8572 12.7681 14.8088 12.8462C14.7468 12.9448 14.7138 13.0587 14.7135 13.1751L14.7018 15.6947C14.1018 16.1658 13.4334 16.5426 12.7197 16.8119L10.4682 15.5572C10.3747 15.5055 10.2695 15.4786 10.1627 15.4791H10.1479C10.0533 15.4791 9.95801 15.4791 9.86348 15.4791C9.75167 15.4763 9.64113 15.5032 9.54317 15.5572L7.29004 16.815C6.57481 16.5477 5.90459 16.1729 5.30254 15.7033L5.29395 13.1876C5.29356 13.071 5.26055 12.9568 5.19864 12.858C5.1502 12.7798 5.10254 12.7017 5.05801 12.6189C5.00279 12.5196 4.92183 12.437 4.82364 12.3798L2.58926 11.1072C2.47363 10.3758 2.47363 9.63076 2.58926 8.89937L4.81738 7.62749C4.91518 7.57188 4.99615 7.49091 5.05176 7.39312C5.09707 7.31499 5.14473 7.23218 5.19317 7.15405C5.25517 7.05553 5.2882 6.94156 5.28848 6.82515L5.3002 4.30562C5.90014 3.83448 6.56853 3.45774 7.28223 3.18843L9.53067 4.44312C9.62852 4.49736 9.73914 4.52434 9.85098 4.52124C9.94551 4.52124 10.0408 4.52124 10.1354 4.52124C10.2472 4.52404 10.3577 4.49707 10.4557 4.44312L12.7088 3.1853C13.424 3.45255 14.0942 3.82744 14.6963 4.29702L14.7049 6.81265C14.7053 6.92928 14.7383 7.04349 14.8002 7.14234C14.8486 7.22046 14.8963 7.29859 14.9408 7.3814C14.996 7.48071 15.077 7.56329 15.1752 7.62046L17.4096 8.89312C17.5267 9.62508 17.5281 10.3709 17.4135 11.1033H17.4166Z" fill="#B2B2B2"/>
</svg>
