<svg width="28" height="28" viewBox="0 0 28 28" fill="none" xmlns="http://www.w3.org/2000/svg">
<path d="M23.625 4.375H4.375C3.91087 4.375 3.46575 4.55937 3.13756 4.88756C2.80937 5.21575 2.625 5.66087 2.625 6.125V21.875C2.625 22.3391 2.80937 22.7842 3.13756 23.1124C3.46575 23.4406 3.91087 23.625 4.375 23.625H23.625C24.0891 23.625 24.5342 23.4406 24.8624 23.1124C25.1906 22.7842 25.375 22.3391 25.375 21.875V6.125C25.375 5.66087 25.1906 5.21575 24.8624 4.88756C24.5342 4.55937 24.0891 4.375 23.625 4.375ZM23.625 6.125V17.3633L20.7736 14.513C20.6111 14.3504 20.4182 14.2215 20.2058 14.1335C19.9935 14.0455 19.7659 14.0003 19.536 14.0003C19.3062 14.0003 19.0786 14.0455 18.8662 14.1335C18.6539 14.2215 18.4609 14.3504 18.2984 14.513L16.1109 16.7005L11.2984 11.888C10.9703 11.56 10.5253 11.3758 10.0614 11.3758C9.59748 11.3758 9.15253 11.56 8.82438 11.888L4.375 16.3373V6.125H23.625ZM4.375 18.8125L10.0625 13.125L18.8125 21.875H4.375V18.8125ZM23.625 21.875H21.2877L17.3502 17.9375L19.5377 15.75L23.625 19.8384V21.875ZM15.75 10.9375C15.75 10.6779 15.827 10.4242 15.9712 10.2083C16.1154 9.99247 16.3204 9.82425 16.5602 9.72491C16.8001 9.62557 17.064 9.59958 17.3186 9.65022C17.5732 9.70086 17.807 9.82587 17.9906 10.0094C18.1741 10.193 18.2991 10.4268 18.3498 10.6814C18.4004 10.936 18.3744 11.1999 18.2751 11.4398C18.1758 11.6796 18.0075 11.8846 17.7917 12.0288C17.5758 12.173 17.3221 12.25 17.0625 12.25C16.7144 12.25 16.3806 12.1117 16.1344 11.8656C15.8883 11.6194 15.75 11.2856 15.75 10.9375Z" fill="#FAFAFA"/>
</svg>
