<svg width="28" height="28" viewBox="0 0 28 28" fill="none" xmlns="http://www.w3.org/2000/svg">
<path d="M15.0425 20.3832C15.2064 20.5473 15.2985 20.7698 15.2985 21.0017C15.2985 21.2337 15.2064 21.4562 15.0425 21.6203L13.9553 22.714C12.8055 23.863 11.2465 24.5082 9.621 24.5077C7.99554 24.5072 6.43686 23.861 5.28786 22.7113C4.13885 21.5615 3.49363 20.0024 3.49414 18.377C3.49465 16.7515 4.14086 15.1929 5.29059 14.0438L7.92872 11.4057C9.03306 10.3005 10.518 9.65907 12.0797 9.61272C13.6415 9.56636 15.1619 10.1186 16.3298 11.1563C16.416 11.2328 16.4863 11.3254 16.5367 11.429C16.587 11.5325 16.6165 11.645 16.6234 11.76C16.6303 11.875 16.6145 11.9902 16.5769 12.099C16.5393 12.2079 16.4806 12.3083 16.4042 12.3945C16.3278 12.4806 16.2351 12.5509 16.1316 12.6013C16.028 12.6517 15.9155 12.6812 15.8005 12.6881C15.6856 12.695 15.5703 12.6792 15.4615 12.6416C15.3526 12.6039 15.2522 12.5453 15.1661 12.4688C14.3319 11.7281 13.2462 11.3339 12.1311 11.3671C11.0159 11.4002 9.95556 11.8581 9.16684 12.6471L6.52872 15.282C5.70808 16.1026 5.24705 17.2156 5.24705 18.3762C5.24705 19.5367 5.70808 20.6498 6.52872 21.4704C7.34935 22.291 8.46238 22.7521 9.62293 22.7521C10.7835 22.7521 11.8965 22.291 12.7172 21.4704L13.8043 20.3832C13.8856 20.3019 13.9821 20.2373 14.0883 20.1933C14.1946 20.1493 14.3084 20.1266 14.4234 20.1266C14.5384 20.1266 14.6523 20.1493 14.7585 20.1933C14.8647 20.2373 14.9612 20.3019 15.0425 20.3832ZM22.7075 5.28947C21.5576 4.14215 19.9995 3.4978 18.3751 3.4978C16.7507 3.4978 15.1927 4.14215 14.0428 5.28947L12.9556 6.37775C12.7915 6.54194 12.6994 6.76456 12.6996 6.99665C12.6997 7.22874 12.792 7.45129 12.9561 7.61533C13.1203 7.77937 13.3429 7.87147 13.575 7.87137C13.8071 7.87126 14.0297 7.77897 14.1937 7.61478L15.2809 6.52759C16.1015 5.70696 17.2146 5.24593 18.3751 5.24593C19.5357 5.24593 20.6487 5.70696 21.4693 6.52759C22.29 7.34823 22.751 8.46126 22.751 9.62181C22.751 10.7824 22.29 11.8954 21.4693 12.716L18.8312 15.3563C18.0421 16.1449 16.9815 16.6022 15.8663 16.6347C14.7512 16.6673 13.6658 16.2726 12.832 15.5313C12.7458 15.4549 12.6454 15.3962 12.5366 15.3586C12.4277 15.321 12.3125 15.3052 12.1975 15.3121C11.9653 15.3261 11.7482 15.4317 11.5939 15.6057C11.5175 15.6919 11.4588 15.7923 11.4212 15.9011C11.3835 16.01 11.3677 16.1252 11.3746 16.2402C11.3886 16.4724 11.4942 16.6895 11.6682 16.8438C12.8359 17.8819 14.3562 18.4345 15.9179 18.3885C17.4796 18.3426 18.9647 17.7016 20.0693 16.5967L22.7075 13.9585C23.8555 12.8085 24.5002 11.25 24.5002 9.62509C24.5002 8.00017 23.8555 6.44165 22.7075 5.29166V5.28947Z" fill="#FAFAFA"/>
</svg>
