<svg width="28" height="28" viewBox="0 0 28 28" fill="none" xmlns="http://www.w3.org/2000/svg">
<path d="M8.75 7C8.75 6.76794 8.84219 6.54538 9.00628 6.38128C9.17038 6.21719 9.39294 6.125 9.625 6.125H23.625C23.8571 6.125 24.0796 6.21719 24.2437 6.38128C24.4078 6.54538 24.5 6.76794 24.5 7C24.5 7.23206 24.4078 7.45462 24.2437 7.61872C24.0796 7.78281 23.8571 7.875 23.625 7.875H9.625C9.39294 7.875 9.17038 7.78281 9.00628 7.61872C8.84219 7.45462 8.75 7.23206 8.75 7ZM23.625 13.125H9.625C9.39294 13.125 9.17038 13.2172 9.00628 13.3813C8.84219 13.5454 8.75 13.7679 8.75 14C8.75 14.2321 8.84219 14.4546 9.00628 14.6187C9.17038 14.7828 9.39294 14.875 9.625 14.875H23.625C23.8571 14.875 24.0796 14.7828 24.2437 14.6187C24.4078 14.4546 24.5 14.2321 24.5 14C24.5 13.7679 24.4078 13.5454 24.2437 13.3813C24.0796 13.2172 23.8571 13.125 23.625 13.125ZM23.625 20.125H9.625C9.39294 20.125 9.17038 20.2172 9.00628 20.3813C8.84219 20.5454 8.75 20.7679 8.75 21C8.75 21.2321 8.84219 21.4546 9.00628 21.6187C9.17038 21.7828 9.39294 21.875 9.625 21.875H23.625C23.8571 21.875 24.0796 21.7828 24.2437 21.6187C24.4078 21.4546 24.5 21.2321 24.5 21C24.5 20.7679 24.4078 20.5454 24.2437 20.3813C24.0796 20.2172 23.8571 20.125 23.625 20.125ZM4.8125 5.6875C4.55291 5.6875 4.29915 5.76448 4.08331 5.9087C3.86748 6.05292 3.69925 6.2579 3.59991 6.49773C3.50057 6.73756 3.47458 7.00146 3.52522 7.25606C3.57586 7.51066 3.70087 7.74452 3.88442 7.92808C4.06798 8.11163 4.30184 8.23664 4.55644 8.28728C4.81104 8.33792 5.07494 8.31193 5.31477 8.21259C5.5546 8.11325 5.75959 7.94503 5.9038 7.72919C6.04802 7.51335 6.125 7.25959 6.125 7C6.125 6.6519 5.98672 6.31806 5.74058 6.07192C5.49444 5.82578 5.1606 5.6875 4.8125 5.6875ZM4.8125 12.6875C4.55291 12.6875 4.29915 12.7645 4.08331 12.9087C3.86748 13.0529 3.69925 13.2579 3.59991 13.4977C3.50057 13.7376 3.47458 14.0015 3.52522 14.2561C3.57586 14.5107 3.70087 14.7445 3.88442 14.9281C4.06798 15.1116 4.30184 15.2366 4.55644 15.2873C4.81104 15.3379 5.07494 15.3119 5.31477 15.2126C5.5546 15.1133 5.75959 14.945 5.9038 14.7292C6.04802 14.5133 6.125 14.2596 6.125 14C6.125 13.6519 5.98672 13.3181 5.74058 13.0719C5.49444 12.8258 5.1606 12.6875 4.8125 12.6875ZM4.8125 19.6875C4.55291 19.6875 4.29915 19.7645 4.08331 19.9087C3.86748 20.0529 3.69925 20.2579 3.59991 20.4977C3.50057 20.7376 3.47458 21.0015 3.52522 21.2561C3.57586 21.5107 3.70087 21.7445 3.88442 21.9281C4.06798 22.1116 4.30184 22.2366 4.55644 22.2873C4.81104 22.3379 5.07494 22.3119 5.31477 22.2126C5.5546 22.1133 5.75959 21.945 5.9038 21.7292C6.04802 21.5133 6.125 21.2596 6.125 21C6.125 20.6519 5.98672 20.3181 5.74058 20.0719C5.49444 19.8258 5.1606 19.6875 4.8125 19.6875Z" fill="#FAFAFA"/>
</svg>
