<svg width="28" height="28" viewBox="0 0 28 28" fill="none" xmlns="http://www.w3.org/2000/svg">
<path d="M24.4991 13.9999C24.4991 14.232 24.4069 14.4545 24.2428 14.6186C24.0787 14.7827 23.8561 14.8749 23.6241 14.8749H11.3741C11.142 14.8749 10.9194 14.7827 10.7554 14.6186C10.5913 14.4545 10.4991 14.232 10.4991 13.9999C10.4991 13.7678 10.5913 13.5453 10.7554 13.3812C10.9194 13.2171 11.142 13.1249 11.3741 13.1249H23.6241C23.8561 13.1249 24.0787 13.2171 24.2428 13.3812C24.4069 13.5453 24.4991 13.7678 24.4991 13.9999ZM11.3741 7.87489H23.6241C23.8561 7.87489 24.0787 7.78271 24.2428 7.61861C24.4069 7.45452 24.4991 7.23196 24.4991 6.99989C24.4991 6.76783 24.4069 6.54527 24.2428 6.38118C24.0787 6.21708 23.8561 6.12489 23.6241 6.12489H11.3741C11.142 6.12489 10.9194 6.21708 10.7554 6.38118C10.5913 6.54527 10.4991 6.76783 10.4991 6.99989C10.4991 7.23196 10.5913 7.45452 10.7554 7.61861C10.9194 7.78271 11.142 7.87489 11.3741 7.87489ZM23.6241 20.1249H11.3741C11.142 20.1249 10.9194 20.2171 10.7554 20.3812C10.5913 20.5453 10.4991 20.7678 10.4991 20.9999C10.4991 21.232 10.5913 21.4545 10.7554 21.6186C10.9194 21.7827 11.142 21.8749 11.3741 21.8749H23.6241C23.8561 21.8749 24.0787 21.7827 24.2428 21.6186C24.4069 21.4545 24.4991 21.232 24.4991 20.9999C24.4991 20.7678 24.4069 20.5453 24.2428 20.3812C24.0787 20.2171 23.8561 20.1249 23.6241 20.1249ZM4.76563 6.03302L5.24907 5.79021V11.3749C5.24907 11.607 5.34126 11.8295 5.50535 11.9936C5.66945 12.1577 5.89201 12.2499 6.12407 12.2499C6.35614 12.2499 6.5787 12.1577 6.74279 11.9936C6.90688 11.8295 6.99907 11.607 6.99907 11.3749V4.37489C6.99918 4.22567 6.96112 4.07889 6.88851 3.94852C6.8159 3.81815 6.71116 3.70852 6.58423 3.63004C6.45731 3.55156 6.31242 3.50685 6.16335 3.50015C6.01427 3.49345 5.86596 3.52499 5.73251 3.59177L3.98251 4.46677C3.77481 4.57062 3.61687 4.75272 3.54344 4.97302C3.50708 5.0821 3.49256 5.19727 3.50071 5.31196C3.50887 5.42665 3.53953 5.53862 3.59095 5.64146C3.64237 5.7443 3.71354 5.836 3.8004 5.91134C3.88727 5.98667 3.98812 6.04416 4.0972 6.08052C4.31749 6.15396 4.55794 6.13687 4.76563 6.03302ZM8.72392 17.1411C8.67553 16.7946 8.55757 16.4614 8.37713 16.1616C8.19669 15.8618 7.95749 15.6016 7.67392 15.3966C7.10594 14.9842 6.40047 14.8074 5.70512 14.9032C5.00977 14.999 4.37841 15.36 3.94313 15.9107C3.77677 16.1243 3.64501 16.3627 3.55267 16.6172C3.50445 16.7268 3.47921 16.8451 3.47853 16.9648C3.47785 17.0844 3.50173 17.203 3.54869 17.3131C3.59566 17.4232 3.66471 17.5225 3.75158 17.6048C3.83845 17.6872 3.94129 17.7508 4.05374 17.7918C4.16619 17.8328 4.28586 17.8503 4.40534 17.8432C4.52482 17.8361 4.64158 17.8046 4.74839 17.7506C4.8552 17.6966 4.94979 17.6212 5.02632 17.5292C5.10284 17.4371 5.15967 17.3304 5.19329 17.2155C5.22392 17.1316 5.26746 17.053 5.32235 16.9826C5.47671 16.7902 5.69927 16.6648 5.94373 16.6324C6.1882 16.6 6.43574 16.6632 6.63485 16.8086C6.73063 16.8764 6.81163 16.9629 6.87293 17.0629C6.93423 17.163 6.97454 17.2744 6.99142 17.3905C7.00685 17.502 6.9996 17.6155 6.97009 17.7241C6.94058 17.8328 6.88943 17.9343 6.8197 18.0227C6.81651 18.0265 6.81359 18.0305 6.81095 18.0347L3.67298 22.226C3.57574 22.3561 3.51662 22.5106 3.50224 22.6724C3.48785 22.8342 3.51877 22.9967 3.59154 23.1419C3.66431 23.2871 3.77604 23.4092 3.91425 23.4945C4.05245 23.5798 4.21167 23.6249 4.37407 23.6249H7.87407C8.10614 23.6249 8.3287 23.5327 8.49279 23.3686C8.65689 23.2045 8.74907 22.982 8.74907 22.7499C8.74907 22.5178 8.65689 22.2953 8.49279 22.1312C8.3287 21.9671 8.10614 21.8749 7.87407 21.8749H6.12407L8.21095 19.0826C8.42253 18.81 8.577 18.4977 8.66514 18.1641C8.75327 17.8305 8.77326 17.4826 8.72392 17.1411Z" fill="#FAFAFA"/>
</svg>
