<svg width="28" height="28" viewBox="0 0 28 28" fill="none" xmlns="http://www.w3.org/2000/svg">
<path d="M24.5005 14C24.5005 14.2321 24.4083 14.4546 24.2442 14.6187C24.0801 14.7828 23.8576 14.875 23.6255 14.875H14.0005C13.7684 14.875 13.5459 14.7828 13.3818 14.6187C13.2177 14.4546 13.1255 14.2321 13.1255 14C13.1255 13.7679 13.2177 13.5454 13.3818 13.3813C13.5459 13.2172 13.7684 13.125 14.0005 13.125H23.6255C23.8576 13.125 24.0801 13.2172 24.2442 13.3813C24.4083 13.5454 24.5005 13.7679 24.5005 14ZM14.0005 7.875H23.6255C23.8576 7.875 24.0801 7.78281 24.2442 7.61872C24.4083 7.45462 24.5005 7.23206 24.5005 7C24.5005 6.76793 24.4083 6.54537 24.2442 6.38128C24.0801 6.21719 23.8576 6.125 23.6255 6.125H14.0005C13.7684 6.125 13.5459 6.21719 13.3818 6.38128C13.2177 6.54537 13.1255 6.76793 13.1255 7C13.1255 7.23206 13.2177 7.45462 13.3818 7.61872C13.5459 7.78281 13.7684 7.875 14.0005 7.875ZM23.6255 20.125H14.0005C13.7684 20.125 13.5459 20.2172 13.3818 20.3813C13.2177 20.5454 13.1255 20.7679 13.1255 21C13.1255 21.2321 13.2177 21.4546 13.3818 21.6187C13.5459 21.7828 13.7684 21.875 14.0005 21.875H23.6255C23.8576 21.875 24.0801 21.7828 24.2442 21.6187C24.4083 21.4546 24.5005 21.2321 24.5005 21C24.5005 20.7679 24.4083 20.5454 24.2442 20.3813C24.0801 20.2172 23.8576 20.125 23.6255 20.125ZM9.00642 4.63094L6.12549 7.51297L4.99455 6.38094C4.83036 6.21675 4.60768 6.12451 4.37549 6.12451C4.14329 6.12451 3.92061 6.21675 3.75642 6.38094C3.59224 6.54512 3.5 6.7678 3.5 7C3.5 7.23219 3.59224 7.45488 3.75642 7.61906L5.50642 9.36906C5.58769 9.45042 5.68419 9.51495 5.79041 9.55899C5.89664 9.60302 6.0105 9.62569 6.12549 9.62569C6.24047 9.62569 6.35434 9.60302 6.46056 9.55899C6.56678 9.51495 6.66328 9.45042 6.74455 9.36906L10.2445 5.86906C10.4087 5.70488 10.501 5.48219 10.501 5.25C10.501 5.0178 10.4087 4.79512 10.2445 4.63094C10.0804 4.46675 9.85768 4.37451 9.62549 4.37451C9.39329 4.37451 9.17061 4.46675 9.00642 4.63094ZM9.00642 11.6309L6.12549 14.513L4.99455 13.3809C4.83036 13.2167 4.60768 13.1245 4.37549 13.1245C4.14329 13.1245 3.92061 13.2167 3.75642 13.3809C3.59224 13.5451 3.5 13.7678 3.5 14C3.5 14.115 3.52265 14.2288 3.56664 14.335C3.61064 14.4413 3.67513 14.5378 3.75642 14.6191L5.50642 16.3691C5.58769 16.4504 5.68419 16.515 5.79041 16.559C5.89664 16.603 6.0105 16.6257 6.12549 16.6257C6.24047 16.6257 6.35434 16.603 6.46056 16.559C6.56678 16.515 6.66328 16.4504 6.74455 16.3691L10.2445 12.8691C10.4087 12.7049 10.501 12.4822 10.501 12.25C10.501 12.0178 10.4087 11.7951 10.2445 11.6309C10.0804 11.4667 9.85768 11.3745 9.62549 11.3745C9.39329 11.3745 9.17061 11.4667 9.00642 11.6309ZM9.00642 18.6309L6.12549 21.513L4.99455 20.3809C4.91325 20.2996 4.81674 20.2352 4.71052 20.1912C4.6043 20.1472 4.49046 20.1245 4.37549 20.1245C4.26052 20.1245 4.14667 20.1472 4.04045 20.1912C3.93423 20.2352 3.83772 20.2996 3.75642 20.3809C3.67513 20.4622 3.61064 20.5587 3.56664 20.665C3.52265 20.7712 3.5 20.885 3.5 21C3.5 21.115 3.52265 21.2288 3.56664 21.335C3.61064 21.4413 3.67513 21.5378 3.75642 21.6191L5.50642 23.3691C5.58769 23.4504 5.68419 23.515 5.79041 23.559C5.89664 23.603 6.0105 23.6257 6.12549 23.6257C6.24047 23.6257 6.35434 23.603 6.46056 23.559C6.56678 23.515 6.66328 23.4504 6.74455 23.3691L10.2445 19.8691C10.4087 19.7049 10.501 19.4822 10.501 19.25C10.501 19.0178 10.4087 18.7951 10.2445 18.6309C10.0804 18.4668 9.85768 18.3745 9.62549 18.3745C9.39329 18.3745 9.17061 18.4668 9.00642 18.6309Z" fill="#FAFAFA"/>
</svg>
