<svg width="20" height="20" viewBox="0 0 20 20" fill="none" xmlns="http://www.w3.org/2000/svg">
<path d="M18.125 14.375C18.125 14.5408 18.0592 14.6997 17.9419 14.8169C17.8247 14.9342 17.6658 15 17.5 15H12.5734C12.3412 15.0007 12.1134 14.9365 11.9158 14.8144C11.7182 14.6923 11.5588 14.5174 11.4555 14.3094L7.42656 6.25001H2.5C2.33424 6.25001 2.17527 6.18416 2.05806 6.06695C1.94085 5.94974 1.875 5.79077 1.875 5.62501C1.875 5.45925 1.94085 5.30027 2.05806 5.18306C2.17527 5.06585 2.33424 5.00001 2.5 5.00001H7.42656C7.65881 4.99926 7.88662 5.06356 8.0842 5.18562C8.28179 5.30768 8.44125 5.48262 8.54453 5.69063L12.5734 13.75H17.5C17.6658 13.75 17.8247 13.8159 17.9419 13.9331C18.0592 14.0503 18.125 14.2092 18.125 14.375ZM11.875 6.25001H17.5C17.6658 6.25001 17.8247 6.18416 17.9419 6.06695C18.0592 5.94974 18.125 5.79077 18.125 5.62501C18.125 5.45925 18.0592 5.30027 17.9419 5.18306C17.8247 5.06585 17.6658 5.00001 17.5 5.00001H11.875C11.7092 5.00001 11.5503 5.06585 11.4331 5.18306C11.3158 5.30027 11.25 5.45925 11.25 5.62501C11.25 5.79077 11.3158 5.94974 11.4331 6.06695C11.5503 6.18416 11.7092 6.25001 11.875 6.25001Z" fill="#B2B2B2"/>
</svg>
