<svg width="20" height="20" viewBox="0 0 20 20" fill="none" xmlns="http://www.w3.org/2000/svg">
<path d="M11.8746 17.5C11.8746 17.6658 11.8087 17.8247 11.6915 17.9419C11.5743 18.0591 11.4153 18.125 11.2496 18.125H8.74957C8.58381 18.125 8.42484 18.0591 8.30763 17.9419C8.19042 17.8247 8.12457 17.6658 8.12457 17.5C8.12457 17.3342 8.19042 17.1753 8.30763 17.0581C8.42484 16.9408 8.58381 16.875 8.74957 16.875H11.2496C11.4153 16.875 11.5743 16.9408 11.6915 17.0581C11.8087 17.1753 11.8746 17.3342 11.8746 17.5ZM9.99957 8.75C10.185 8.75 10.3662 8.69501 10.5204 8.592C10.6746 8.48899 10.7948 8.34257 10.8657 8.17126C10.9367 7.99996 10.9552 7.81146 10.9191 7.6296C10.8829 7.44774 10.7936 7.2807 10.6625 7.14959C10.5314 7.01847 10.3643 6.92919 10.1825 6.89301C10.0006 6.85684 9.81211 6.8754 9.64081 6.94636C9.4695 7.01732 9.32308 7.13748 9.22007 7.29165C9.11706 7.44582 9.06207 7.62708 9.06207 7.8125C9.06207 8.06114 9.16084 8.2996 9.33666 8.47541C9.51247 8.65123 9.75093 8.75 9.99957 8.75ZM17.4699 12.1742L16.5043 16.5203C16.4584 16.7267 16.361 16.9181 16.2211 17.0766C16.0813 17.2351 15.9034 17.3555 15.7044 17.4266C15.5053 17.4977 15.2914 17.5172 15.0827 17.4831C14.8741 17.4491 14.6775 17.3627 14.5113 17.232L12.3832 15.625H7.61754L5.48785 17.232C5.32167 17.3627 5.12506 17.4491 4.91641 17.4831C4.70776 17.5172 4.49389 17.4977 4.29479 17.4266C4.0957 17.3555 3.91789 17.2351 3.778 17.0766C3.6381 16.9181 3.5407 16.7267 3.49488 16.5203L2.52926 12.1742C2.4883 11.9877 2.49037 11.7943 2.53531 11.6087C2.58025 11.4231 2.66689 11.2502 2.78863 11.1031L5.01988 8.42656C5.09477 7.44292 5.32059 6.47666 5.68942 5.56172C6.69723 3.03515 8.50192 1.45 9.23395 0.885935C9.45306 0.716157 9.72238 0.624023 9.99957 0.624023C10.2768 0.624023 10.5461 0.716157 10.7652 0.885935C11.4949 1.45 13.3019 3.03515 14.3097 5.56172C14.6786 6.47666 14.9044 7.44292 14.9793 8.42656L17.2105 11.1031C17.3323 11.2502 17.4189 11.4231 17.4638 11.6087C17.5088 11.7943 17.5108 11.9877 17.4699 12.1742ZM7.76754 14.375H12.2316C13.8816 11.4422 14.1902 8.63437 13.1488 6.025C12.23 3.72187 10.5066 2.26562 9.99957 1.875C9.49098 2.26562 7.76754 3.72187 6.84879 6.025C5.80895 8.63437 6.11754 11.4422 7.76754 14.375ZM6.59567 14.832C5.75452 13.3034 5.2441 11.801 5.06442 10.325L3.74957 11.9031L4.7152 16.25L4.72926 16.2398L6.59567 14.832ZM16.2496 11.9031L14.9347 10.325C14.7566 11.7979 14.2472 13.3003 13.4066 14.832L15.2699 16.2383L15.2839 16.2484L16.2496 11.9031Z" fill="#008080"/>
</svg>
