<svg width="28" height="28" viewBox="0 0 28 28" fill="none" xmlns="http://www.w3.org/2000/svg">
<path d="M23.987 8.75001L19.25 4.01298C19.0881 3.84977 18.8953 3.72037 18.683 3.63231C18.4706 3.54425 18.2429 3.49927 18.013 3.50001H5.25C4.78587 3.50001 4.34075 3.68438 4.01256 4.01257C3.68437 4.34076 3.5 4.78588 3.5 5.25001V22.75C3.5 23.2141 3.68437 23.6593 4.01256 23.9874C4.34075 24.3156 4.78587 24.5 5.25 24.5H22.75C23.2141 24.5 23.6592 24.3156 23.9874 23.9874C24.3156 23.6593 24.5 23.2141 24.5 22.75V9.98704C24.5007 9.75714 24.4558 9.52939 24.3677 9.31703C24.2796 9.10466 24.1502 8.91192 23.987 8.75001ZM18.375 22.75H9.625V16.625H18.375V22.75ZM22.75 22.75H20.125V16.625C20.125 16.1609 19.9406 15.7158 19.6124 15.3876C19.2842 15.0594 18.8391 14.875 18.375 14.875H9.625C9.16087 14.875 8.71575 15.0594 8.38756 15.3876C8.05937 15.7158 7.875 16.1609 7.875 16.625V22.75H5.25V5.25001H18.013L22.75 9.98704V22.75ZM17.5 7.87501C17.5 8.10707 17.4078 8.32963 17.2437 8.49373C17.0796 8.65782 16.8571 8.75001 16.625 8.75001H10.5C10.2679 8.75001 10.0454 8.65782 9.88128 8.49373C9.71719 8.32963 9.625 8.10707 9.625 7.87501C9.625 7.64294 9.71719 7.42039 9.88128 7.25629C10.0454 7.0922 10.2679 7.00001 10.5 7.00001H16.625C16.8571 7.00001 17.0796 7.0922 17.2437 7.25629C17.4078 7.42039 17.5 7.64294 17.5 7.87501Z" fill="#FAFAFA"/>
</svg>
