<svg width="28" height="28" viewBox="0 0 28 28" fill="none" xmlns="http://www.w3.org/2000/svg">
<path d="M9.625 11.375H4.375C4.14294 11.375 3.92038 11.2828 3.75628 11.1187C3.59219 10.9546 3.5 10.7321 3.5 10.5V5.25C3.5 5.01794 3.59219 4.79538 3.75628 4.63128C3.92038 4.46719 4.14294 4.375 4.375 4.375C4.60706 4.375 4.82962 4.46719 4.99372 4.63128C5.15781 4.79538 5.25 5.01794 5.25 5.25V7.85859C6.94203 5.95 9.91047 3.5 14 3.5C18.6834 3.5 21.5009 6.26391 21.6191 6.38094C21.7835 6.54483 21.8762 6.76735 21.8766 6.99955C21.877 7.23174 21.7851 7.45459 21.6212 7.61906C21.4574 7.78354 21.2348 7.87617 21.0026 7.87658C20.7704 7.87699 20.5476 7.78515 20.3831 7.62125C20.3536 7.59172 17.9287 5.25 14 5.25C10.1719 5.25 7.41234 7.94609 6.06375 9.625H9.625C9.85706 9.625 10.0796 9.71719 10.2437 9.88128C10.4078 10.0454 10.5 10.2679 10.5 10.5C10.5 10.7321 10.4078 10.9546 10.2437 11.1187C10.0796 11.2828 9.85706 11.375 9.625 11.375ZM23.625 16.625H18.375C18.1429 16.625 17.9204 16.7172 17.7563 16.8813C17.5922 17.0454 17.5 17.2679 17.5 17.5C17.5 17.7321 17.5922 17.9546 17.7563 18.1187C17.9204 18.2828 18.1429 18.375 18.375 18.375H21.9362C20.5877 20.0539 17.8281 22.75 14 22.75C10.0713 22.75 7.64641 20.4083 7.61687 20.3788C7.4524 20.2149 7.22955 20.123 6.99736 20.1234C6.76517 20.1238 6.54265 20.2165 6.37875 20.3809C6.21485 20.5454 6.12301 20.7683 6.12342 21.0005C6.12383 21.2326 6.21646 21.4552 6.38094 21.6191C6.49906 21.7361 9.31656 24.5 14 24.5C18.0895 24.5 21.058 22.05 22.75 20.1414V22.75C22.75 22.9821 22.8422 23.2046 23.0063 23.3687C23.1704 23.5328 23.3929 23.625 23.625 23.625C23.8571 23.625 24.0796 23.5328 24.2437 23.3687C24.4078 23.2046 24.5 22.9821 24.5 22.75V17.5C24.5 17.2679 24.4078 17.0454 24.2437 16.8813C24.0796 16.7172 23.8571 16.625 23.625 16.625Z" fill="#FAFAFA"/>
</svg>
