<svg width="28" height="28" viewBox="0 0 28 28" fill="none" xmlns="http://www.w3.org/2000/svg">
<path d="M24.5 5.25H3.5C3.26794 5.25 3.04538 5.34219 2.88128 5.50628C2.71719 5.67038 2.625 5.89294 2.625 6.125V21C2.625 21.4641 2.80937 21.9092 3.13756 22.2374C3.46575 22.5656 3.91087 22.75 4.375 22.75H23.625C24.0891 22.75 24.5342 22.5656 24.8624 22.2374C25.1906 21.9092 25.375 21.4641 25.375 21V6.125C25.375 5.89294 25.2828 5.67038 25.1187 5.50628C24.9546 5.34219 24.7321 5.25 24.5 5.25ZM4.375 12.25H8.75V15.75H4.375V12.25ZM10.5 12.25H23.625V15.75H10.5V12.25ZM23.625 7V10.5H4.375V7H23.625ZM4.375 17.5H8.75V21H4.375V17.5ZM23.625 21H10.5V17.5H23.625V21Z" fill="#FAFAFA"/>
</svg>
