<svg width="20" height="20" viewBox="0 0 20 20" fill="none" xmlns="http://www.w3.org/2000/svg">
<path d="M17.3334 6.4967C18.2006 8.31061 18.3653 10.3815 17.7955 12.3096C17.2257 14.2378 15.9619 15.8866 14.248 16.9377C12.5341 17.9889 10.4915 18.3679 8.51459 18.0016C6.53765 17.6354 4.76645 16.5498 3.54283 14.9544C2.31921 13.359 1.72992 11.367 1.88869 9.36266C2.04746 7.35835 2.94304 5.4839 4.40257 4.10107C5.8621 2.71825 7.78213 1.92507 9.79208 1.87463C11.802 1.82419 13.7594 2.52007 15.2865 3.82795L17.0576 2.05607C17.1749 1.9388 17.3339 1.87291 17.4998 1.87291C17.6656 1.87291 17.8247 1.9388 17.942 2.05607C18.0592 2.17335 18.1251 2.33241 18.1251 2.49826C18.1251 2.66411 18.0592 2.82317 17.942 2.94045L10.442 10.4404C10.3247 10.5577 10.1656 10.6236 9.99976 10.6236C9.83391 10.6236 9.67485 10.5577 9.55758 10.4404C9.4403 10.3232 9.37442 10.1641 9.37442 9.99826C9.37442 9.83241 9.4403 9.67335 9.55758 9.55607L11.7232 7.39045C11.1363 7.00229 10.4356 6.82357 9.73443 6.88322C9.0333 6.94287 8.37283 7.2374 7.85993 7.71914C7.34703 8.20087 7.01172 8.84161 6.90829 9.53762C6.80486 10.2336 6.93936 10.9442 7.29001 11.5542C7.64066 12.1643 8.18695 12.6382 8.84043 12.8991C9.49391 13.1601 10.2163 13.1929 10.8908 12.9921C11.5652 12.7914 12.1521 12.369 12.5566 11.7931C12.961 11.2173 13.1593 10.5219 13.1193 9.81935C13.1147 9.73728 13.1263 9.6551 13.1534 9.5775C13.1806 9.49991 13.2227 9.42842 13.2775 9.36712C13.3323 9.30581 13.3986 9.2559 13.4726 9.22023C13.5467 9.18455 13.6271 9.16381 13.7091 9.1592C13.8749 9.14987 14.0376 9.20678 14.1614 9.3174C14.2227 9.37217 14.2726 9.43848 14.3083 9.51254C14.3439 9.5866 14.3647 9.66697 14.3693 9.74904C14.4263 10.7434 14.1423 11.7274 13.5642 12.5385C12.9862 13.3496 12.1487 13.9392 11.1901 14.2098C10.2316 14.4804 9.20944 14.4158 8.29257 14.0268C7.3757 13.6377 6.61902 12.9475 6.14759 12.0702C5.67616 11.1928 5.5182 10.1808 5.69981 9.20156C5.88143 8.22227 6.39175 7.33426 7.14643 6.6843C7.90112 6.03434 8.85498 5.66133 9.85038 5.62694C10.8458 5.59255 11.8231 5.89882 12.6209 6.49514L14.3982 4.71779C13.0957 3.63638 11.4396 3.07432 9.74793 3.13957C8.05628 3.20481 6.44837 3.89276 5.23304 5.07128C4.0177 6.2498 3.28063 7.83579 3.16339 9.52464C3.04615 11.2135 3.55702 12.8861 4.59786 14.2212C5.6387 15.5564 7.13613 16.4599 8.80254 16.7583C10.469 17.0566 12.1868 16.7288 13.6263 15.8377C15.0657 14.9466 16.1252 13.5552 16.6012 11.9306C17.0772 10.3059 16.9362 8.56274 16.2052 7.03576C16.1337 6.88616 16.1246 6.71429 16.1799 6.55796C16.2351 6.40163 16.3502 6.27365 16.4998 6.20217C16.6494 6.13068 16.8212 6.12155 16.9776 6.17679C17.1339 6.23202 17.2619 6.3471 17.3334 6.4967Z" fill="#FF6F61"/>
</svg>
