<svg width="28" height="28" viewBox="0 0 28 28" fill="none" xmlns="http://www.w3.org/2000/svg">
<path d="M24.5 14C24.5 14.2321 24.4078 14.4546 24.2437 14.6187C24.0796 14.7828 23.8571 14.875 23.625 14.875H19.2423C20.2475 15.6527 21 16.7562 21 18.375C21 19.8341 20.2344 21.1859 18.8398 22.1802C17.5361 23.112 15.8167 23.625 14 23.625C12.1833 23.625 10.4639 23.112 9.16016 22.1802C7.76562 21.1859 7 19.8341 7 18.375C7 18.1429 7.09219 17.9204 7.25628 17.7563C7.42038 17.5922 7.64294 17.5 7.875 17.5C8.10706 17.5 8.32962 17.5922 8.49372 17.7563C8.65781 17.9204 8.75 18.1429 8.75 18.375C8.75 20.2727 11.1562 21.875 14 21.875C16.8438 21.875 19.25 20.2727 19.25 18.375C19.25 16.7508 18.0972 15.7959 15.0095 14.875H4.375C4.14294 14.875 3.92038 14.7828 3.75628 14.6187C3.59219 14.4546 3.5 14.2321 3.5 14C3.5 13.7679 3.59219 13.5454 3.75628 13.3813C3.92038 13.2172 4.14294 13.125 4.375 13.125H23.625C23.8571 13.125 24.0796 13.2172 24.2437 13.3813C24.4078 13.5454 24.5 13.7679 24.5 14ZM8.34859 11.375C8.48692 11.3751 8.62331 11.3425 8.74656 11.2797C8.86982 11.2169 8.97643 11.1258 9.05766 11.0138C9.13888 10.9018 9.19241 10.7722 9.21384 10.6356C9.23527 10.4989 9.22399 10.3591 9.18094 10.2277C9.11831 10.033 9.08765 9.82947 9.09016 9.625C9.09016 7.63 11.2011 6.125 14 6.125C16.0606 6.125 17.7362 6.93656 18.4844 8.29609C18.6026 8.48648 18.7893 8.62427 19.0061 8.68106C19.2228 8.73785 19.4531 8.7093 19.6495 8.60131C19.8458 8.49332 19.9933 8.31411 20.0614 8.10063C20.1295 7.88715 20.1131 7.65567 20.0156 7.45391C18.958 5.52563 16.7092 4.375 14 4.375C10.2036 4.375 7.34016 6.63141 7.34016 9.625C7.3383 10.0144 7.3981 10.4016 7.51734 10.7723C7.57473 10.9476 7.68601 11.1002 7.83528 11.2084C7.98456 11.3166 8.16421 11.3749 8.34859 11.375Z" fill="#FAFAFA"/>
</svg>
