<svg width="28" height="28" viewBox="0 0 28 28" fill="none" xmlns="http://www.w3.org/2000/svg">
<path d="M18.6462 12.6547C19.3374 11.9894 19.8139 11.1327 20.0147 10.1947C20.2155 9.25658 20.1313 8.27991 19.773 7.39002C19.4147 6.50013 18.7986 5.73763 18.0038 5.2004C17.209 4.66318 16.2718 4.37574 15.3125 4.375H7.875C7.64294 4.375 7.42038 4.46719 7.25628 4.63128C7.09219 4.79538 7 5.01794 7 5.25V21.875C7 22.1071 7.09219 22.3296 7.25628 22.4937C7.42038 22.6578 7.64294 22.75 7.875 22.75H16.625C17.8385 22.75 19.0145 22.3296 19.953 21.5604C20.8915 20.7912 21.5346 19.7206 21.7728 18.5307C22.0111 17.3408 21.8298 16.1052 21.2597 15.0339C20.6897 13.9626 19.7662 13.1219 18.6462 12.6547ZM8.75 6.125H15.3125C16.1247 6.125 16.9037 6.44766 17.478 7.02199C18.0523 7.59632 18.375 8.37527 18.375 9.1875C18.375 9.99973 18.0523 10.7787 17.478 11.353C16.9037 11.9273 16.1247 12.25 15.3125 12.25H8.75V6.125ZM16.625 21H8.75V14H16.625C17.5533 14 18.4435 14.3687 19.0999 15.0251C19.7562 15.6815 20.125 16.5717 20.125 17.5C20.125 18.4283 19.7562 19.3185 19.0999 19.9749C18.4435 20.6313 17.5533 21 16.625 21Z" fill="#FAFAFA"/>
</svg>
