<svg width="28" height="28" viewBox="0 0 28 28" fill="none" xmlns="http://www.w3.org/2000/svg">
<path d="M21.875 6.125C21.875 6.35706 21.7828 6.57962 21.6187 6.74372C21.4546 6.90781 21.2321 7 21 7H17.2561L12.5891 21H15.75C15.9821 21 16.2046 21.0922 16.3687 21.2563C16.5328 21.4204 16.625 21.6429 16.625 21.875C16.625 22.1071 16.5328 22.3296 16.3687 22.4937C16.2046 22.6578 15.9821 22.75 15.75 22.75H7C6.76794 22.75 6.54538 22.6578 6.38128 22.4937C6.21719 22.3296 6.125 22.1071 6.125 21.875C6.125 21.6429 6.21719 21.4204 6.38128 21.2563C6.54538 21.0922 6.76794 21 7 21H10.7439L15.4109 7H12.25C12.0179 7 11.7954 6.90781 11.6313 6.74372C11.4672 6.57962 11.375 6.35706 11.375 6.125C11.375 5.89294 11.4672 5.67038 11.6313 5.50628C11.7954 5.34219 12.0179 5.25 12.25 5.25H21C21.2321 5.25 21.4546 5.34219 21.6187 5.50628C21.7828 5.67038 21.875 5.89294 21.875 6.125Z" fill="#FAFAFA"/>
</svg>
