<svg width="28" height="28" viewBox="0 0 28 28" fill="none" xmlns="http://www.w3.org/2000/svg">
<path d="M22.75 6.125V9.625C22.75 9.85706 22.6578 10.0796 22.4937 10.2437C22.3296 10.4078 22.1071 10.5 21.875 10.5C21.6429 10.5 21.4204 10.4078 21.2563 10.2437C21.0922 10.0796 21 9.85706 21 9.625V7H14.875V21H17.5C17.7321 21 17.9546 21.0922 18.1187 21.2563C18.2828 21.4204 18.375 21.6429 18.375 21.875C18.375 22.1071 18.2828 22.3296 18.1187 22.4937C17.9546 22.6578 17.7321 22.75 17.5 22.75H10.5C10.2679 22.75 10.0454 22.6578 9.88128 22.4937C9.71719 22.3296 9.625 22.1071 9.625 21.875C9.625 21.6429 9.71719 21.4204 9.88128 21.2563C10.0454 21.0922 10.2679 21 10.5 21H13.125V7H7V9.625C7 9.85706 6.90781 10.0796 6.74372 10.2437C6.57962 10.4078 6.35706 10.5 6.125 10.5C5.89294 10.5 5.67038 10.4078 5.50628 10.2437C5.34219 10.0796 5.25 9.85706 5.25 9.625V6.125C5.25 5.89294 5.34219 5.67038 5.50628 5.50628C5.67038 5.34219 5.89294 5.25 6.125 5.25H21.875C22.1071 5.25 22.3296 5.34219 22.4937 5.50628C22.6578 5.67038 22.75 5.89294 22.75 6.125Z" fill="#FAFAFA"/>
</svg>
